<svg xmlns="http://www.w3.org/2000/svg" width="1600" height="420" viewBox="0 0 1600 420">
  <defs>
    <linearGradient id="g1" x1="0" y1="0" x2="1" y2="1">
      <stop offset="0%" stop-color="#0ea5e9"/>
      <stop offset="100%" stop-color="#6366f1"/>
    </linearGradient>
    <linearGradient id="g2" x1="1" y1="0" x2="0" y2="1">
      <stop offset="0%" stop-color="#22d3ee" stop-opacity="0.8"/>
      <stop offset="100%" stop-color="#818cf8" stop-opacity="0.2"/>
    </linearGradient>
    <filter id="shadow" x="-20%" y="-20%" width="140%" height="140%">
      <feDropShadow dx="0" dy="8" stdDeviation="12" flood-color="#000000" flood-opacity="0.25"/>
    </filter>
  </defs>

  <rect width="1600" height="420" fill="url(#g1)"/>
  <g opacity="0.2">
    <circle cx="1400" cy="100" r="200" fill="url(#g2)"/>
    <circle cx="200" cy="320" r="180" fill="url(#g2)"/>
  </g>

  <g transform="translate(120,100)" filter="url(#shadow)">
    <rect x="0" y="0" rx="20" ry="20" width="1360" height="220" fill="#0b1220" opacity="0.35"/>
  </g>

  <g transform="translate(160,150)">
    <text x="0" y="0" font-family="Inter,Segoe UI,Roboto,Arial" font-size="54" font-weight="800" fill="#ffffff">
      APMF Monitoring
    </text>
    <text x="0" y="54" font-family="Inter,Segoe UI,Roboto,Arial" font-size="24" fill="#e5e7eb">
      Supervision complète de serveurs Linux — temps réel, alertes, historiques
    </text>
  </g>

  <g transform="translate(1100,120)">
    <rect x="0" y="0" width="320" height="180" rx="16" ry="16" fill="#0b1220" opacity="0.55" stroke="#38bdf8" stroke-width="2"/>
    <polyline points="16,140 64,120 112,140 160,110 208,130 256,100 304,120" fill="none" stroke="#22d3ee" stroke-width="3"/>
    <polyline points="16,120 64,100 112,110 160,90 208,110 256,80 304,100" fill="none" stroke="#a78bfa" stroke-width="2"/>
    <circle cx="256" cy="80" r="4" fill="#a78bfa"/>
  </g>
</svg>
